{
    "streams": [
        {
            "index": 0,
            "codec_name": "av1",
            "codec_long_name": "Alliance for Open Media AV1",
            "profile": "Main",
            "codec_type": "video",
            "codec_tag_string": "[0][0][0][0]",
            "codec_tag": "0x0000",
            "mime_codec_string": "av01.0.08M.10.0.110.09.16.09.0",
            "width": 1920,
            "height": 1040,
            "coded_width": 1920,
            "coded_height": 1040,
            "has_b_frames": 0,
            "sample_aspect_ratio": "1:1",
            "display_aspect_ratio": "24:13",
            "pix_fmt": "yuv420p10le",
            "level": 8,
            "color_range": "tv",
            "color_space": "bt2020nc",
            "color_transfer": "smpte2084",
            "color_primaries": "bt2020",
            "chroma_location": "topleft",
            "field_order": "progressive",
            "r_frame_rate": "24000/1001",
            "avg_frame_rate": "24000/1001",
            "time_base": "1/1000",
            "start_pts": 0,
            "start_time": "0.000000",
            "extradata_size": 58,
            "disposition": {
                "default": 1,
                "dub": 0,
                "original": 0,
                "comment": 0,
                "lyrics": 0,
                "karaoke": 0,
                "forced": 0,
                "hearing_impaired": 0,
                "visual_impaired": 0,
                "clean_effects": 0,
                "attached_pic": 0,
                "timed_thumbnails": 0,
                "non_diegetic": 0,
                "captions": 0,
                "descriptions": 0,
                "metadata": 0,
                "dependent": 0,
                "still_image": 0,
                "multilayer": 0
            },
            "tags": {
                "title": "SPteam",
                "ENCODER": "Lavc61.3.100 av1_qsv",
                "BPS": "1047763",
                "DURATION": "01:46:34.387708333",
                "NUMBER_OF_FRAMES": "153312",
                "NUMBER_OF_BYTES": "837475328",
                "_STATISTICS_WRITING_APP": "mkvpropedit v88.0 ('All I Know') 64-bit",
                "_STATISTICS_WRITING_DATE_UTC": "2025-06-25 21:55:43",
                "_STATISTICS_TAGS": "BPS DURATION NUMBER_OF_FRAMES NUMBER_OF_BYTES"
            }
        },
        {
            "index": 1,
            "codec_name": "ac3",
            "codec_long_name": "ATSC A/52A (AC-3)",
            "codec_type": "audio",
            "codec_tag_string": "[0][0][0][0]",
            "codec_tag": "0x0000",
            "mime_codec_string": "ac-3",
            "sample_fmt": "fltp",
            "sample_rate": "48000",
            "channels": 6,
            "channel_layout": "5.1(side)",
            "bits_per_sample": 0,
            "initial_padding": 0,
            "dmix_mode": "0",
            "ltrt_cmixlev": "0.000000",
            "ltrt_surmixlev": "0.000000",
            "loro_cmixlev": "0.000000",
            "loro_surmixlev": "0.000000",
            "r_frame_rate": "0/0",
            "avg_frame_rate": "0/0",
            "time_base": "1/1000",
            "start_pts": 0,
            "start_time": "0.000000",
            "bit_rate": "640000",
            "disposition": {
                "default": 0,
                "dub": 0,
                "original": 0,
                "comment": 0,
                "lyrics": 0,
                "karaoke": 0,
                "forced": 0,
                "hearing_impaired": 0,
                "visual_impaired": 0,
                "clean_effects": 0,
                "attached_pic": 0,
                "timed_thumbnails": 0,
                "non_diegetic": 0,
                "captions": 0,
                "descriptions": 0,
                "metadata": 0,
                "dependent": 0,
                "still_image": 0,
                "multilayer": 0
            },
            "tags": {
                "language": "eng",
                "title": "AC3 5.1",
                "BPS": "640000",
                "DURATION": "01:46:34.400000000",
                "NUMBER_OF_FRAMES": "199825",
                "NUMBER_OF_BYTES": "511552000",
                "_STATISTICS_WRITING_APP": "mkvpropedit v88.0 ('All I Know') 64-bit",
                "_STATISTICS_WRITING_DATE_UTC": "2025-06-25 21:55:43",
                "_STATISTICS_TAGS": "BPS DURATION NUMBER_OF_FRAMES NUMBER_OF_BYTES"
            }
        },
        {
            "index": 2,
            "codec_name": "eac3",
            "codec_long_name": "ATSC A/52B (AC-3, E-AC-3)",
            "codec_type": "audio",
            "codec_tag_string": "[0][0][0][0]",
            "codec_tag": "0x0000",
            "mime_codec_string": "ec-3",
            "sample_fmt": "fltp",
            "sample_rate": "48000",
            "channels": 6,
            "channel_layout": "5.1(side)",
            "bits_per_sample": 0,
            "initial_padding": 0,
            "dmix_mode": "0",
            "ltrt_cmixlev": "0.000000",
            "ltrt_surmixlev": "0.000000",
            "loro_cmixlev": "0.000000",
            "loro_surmixlev": "0.000000",
            "r_frame_rate": "0/0",
            "avg_frame_rate": "0/0",
            "time_base": "1/1000",
            "start_pts": 0,
            "start_time": "0.000000",
            "bit_rate": "640000",
            "disposition": {
                "default": 1,
                "dub": 0,
                "original": 0,
                "comment": 0,
                "lyrics": 0,
                "karaoke": 0,
                "forced": 0,
                "hearing_impaired": 0,
                "visual_impaired": 0,
                "clean_effects": 0,
                "attached_pic": 0,
                "timed_thumbnails": 0,
                "non_diegetic": 0,
                "captions": 0,
                "descriptions": 0,
                "metadata": 0,
                "dependent": 0,
                "still_image": 0,
                "multilayer": 0
            },
            "tags": {
                "language": "eng",
                "title": "EAC3 5.1",
                "BPS": "640003",
                "DURATION": "01:46:34.336000000",
                "NUMBER_OF_FRAMES": "199824",
                "NUMBER_OF_BYTES": "511549440",
                "_STATISTICS_WRITING_APP": "mkvpropedit v88.0 ('All I Know') 64-bit",
                "_STATISTICS_WRITING_DATE_UTC": "2025-06-25 21:55:43",
                "_STATISTICS_TAGS": "BPS DURATION NUMBER_OF_FRAMES NUMBER_OF_BYTES"
            }
        },
        {
            "index": 3,
            "codec_name": "hdmv_pgs_subtitle",
            "codec_long_name": "HDMV Presentation Graphic Stream subtitles",
            "codec_type": "subtitle",
            "codec_tag_string": "[0][0][0][0]",
            "codec_tag": "0x0000",
            "r_frame_rate": "0/0",
            "avg_frame_rate": "0/0",
            "time_base": "1/1000",
            "start_pts": 0,
            "start_time": "0.000000",
            "duration_ts": 6394400,
            "duration": "6394.400000",
            "disposition": {
                "default": 0,
                "dub": 0,
                "original": 0,
                "comment": 0,
                "lyrics": 0,
                "karaoke": 0,
                "forced": 0,
                "hearing_impaired": 0,
                "visual_impaired": 0,
                "clean_effects": 0,
                "attached_pic": 0,
                "timed_thumbnails": 0,
                "non_diegetic": 0,
                "captions": 0,
                "descriptions": 0,
                "metadata": 0,
                "dependent": 0,
                "still_image": 0,
                "multilayer": 0
            },
            "tags": {
                "language": "eng",
                "title": "English (SDH)",
                "BPS": "14109",
                "DURATION": "01:42:35.441000000",
                "NUMBER_OF_FRAMES": "1188",
                "NUMBER_OF_BYTES": "10856252",
                "_STATISTICS_WRITING_APP": "mkvpropedit v88.0 ('All I Know') 64-bit",
                "_STATISTICS_WRITING_DATE_UTC": "2025-06-25 21:55:43",
                "_STATISTICS_TAGS": "BPS DURATION NUMBER_OF_FRAMES NUMBER_OF_BYTES"
            }
        },
        {
            "index": 4,
            "codec_name": "subrip",
            "codec_long_name": "SubRip subtitle",
            "codec_type": "subtitle",
            "codec_tag_string": "[0][0][0][0]",
            "codec_tag": "0x0000",
            "r_frame_rate": "0/0",
            "avg_frame_rate": "0/0",
            "time_base": "1/1000",
            "start_pts": 0,
            "start_time": "0.000000",
            "duration_ts": 6394400,
            "duration": "6394.400000",
            "disposition": {
                "default": 1,
                "dub": 0,
                "original": 0,
                "comment": 0,
                "lyrics": 0,
                "karaoke": 0,
                "forced": 0,
                "hearing_impaired": 0,
                "visual_impaired": 0,
                "clean_effects": 0,
                "attached_pic": 0,
                "timed_thumbnails": 0,
                "non_diegetic": 0,
                "captions": 0,
                "descriptions": 0,
                "metadata": 0,
                "dependent": 0,
                "still_image": 0,
                "multilayer": 0
            },
            "tags": {
                "BPS": "21",
                "DURATION": "01:37:21.668000000",
                "NUMBER_OF_FRAMES": "465",
                "NUMBER_OF_BYTES": "15391",
                "_STATISTICS_WRITING_APP": "mkvpropedit v88.0 ('All I Know') 64-bit",
                "_STATISTICS_WRITING_DATE_UTC": "2025-06-25 21:55:43",
                "_STATISTICS_TAGS": "BPS DURATION NUMBER_OF_FRAMES NUMBER_OF_BYTES"
            }
        },
        {
            "index": 5,
            "codec_name": "subrip",
            "codec_long_name": "SubRip subtitle",
            "codec_type": "subtitle",
            "codec_tag_string": "[0][0][0][0]",
            "codec_tag": "0x0000",
            "r_frame_rate": "0/0",
            "avg_frame_rate": "0/0",
            "time_base": "1/1000",
            "start_pts": 0,
            "start_time": "0.000000",
            "duration_ts": 6394400,
            "duration": "6394.400000",
            "disposition": {
                "default": 0,
                "dub": 0,
                "original": 0,
                "comment": 0,
                "lyrics": 0,
                "karaoke": 0,
                "forced": 0,
                "hearing_impaired": 0,
                "visual_impaired": 0,
                "clean_effects": 0,
                "attached_pic": 0,
                "timed_thumbnails": 0,
                "non_diegetic": 0,
                "captions": 0,
                "descriptions": 0,
                "metadata": 0,
                "dependent": 0,
                "still_image": 0,
                "multilayer": 0
            },
            "tags": {
                "language": "rum",
                "title": "Romanian",
                "BPS": "21",
                "DURATION": "01:37:21.668000000",
                "NUMBER_OF_FRAMES": "465",
                "NUMBER_OF_BYTES": "15391",
                "_STATISTICS_WRITING_APP": "mkvpropedit v88.0 ('All I Know') 64-bit",
                "_STATISTICS_WRITING_DATE_UTC": "2025-06-25 21:55:43",
                "_STATISTICS_TAGS": "BPS DURATION NUMBER_OF_FRAMES NUMBER_OF_BYTES"
            }
        },
        {
            "index": 6,
            "codec_name": "hdmv_pgs_subtitle",
            "codec_long_name": "HDMV Presentation Graphic Stream subtitles",
            "codec_type": "subtitle",
            "codec_tag_string": "[0][0][0][0]",
            "codec_tag": "0x0000",
            "r_frame_rate": "0/0",
            "avg_frame_rate": "0/0",
            "time_base": "1/1000",
            "start_pts": 0,
            "start_time": "0.000000",
            "duration_ts": 6394400,
            "duration": "6394.400000",
            "disposition": {
                "default": 0,
                "dub": 0,
                "original": 0,
                "comment": 0,
                "lyrics": 0,
                "karaoke": 0,
                "forced": 0,
                "hearing_impaired": 0,
                "visual_impaired": 0,
                "clean_effects": 0,
                "attached_pic": 0,
                "timed_thumbnails": 0,
                "non_diegetic": 0,
                "captions": 0,
                "descriptions": 0,
                "metadata": 0,
                "dependent": 0,
                "still_image": 0,
                "multilayer": 0
            },
            "tags": {
                "language": "chi",
                "title": "Chinese (Cantonese)",
                "BPS": "10612",
                "DURATION": "01:42:33.564000000",
                "NUMBER_OF_FRAMES": "886",
                "NUMBER_OF_BYTES": "8163026",
                "_STATISTICS_WRITING_APP": "mkvpropedit v88.0 ('All I Know') 64-bit",
                "_STATISTICS_WRITING_DATE_UTC": "2025-06-25 21:55:43",
                "_STATISTICS_TAGS": "BPS DURATION NUMBER_OF_FRAMES NUMBER_OF_BYTES"
            }
        },
        {
            "index": 7,
            "codec_name": "hdmv_pgs_subtitle",
            "codec_long_name": "HDMV Presentation Graphic Stream subtitles",
            "codec_type": "subtitle",
            "codec_tag_string": "[0][0][0][0]",
            "codec_tag": "0x0000",
            "r_frame_rate": "0/0",
            "avg_frame_rate": "0/0",
            "time_base": "1/1000",
            "start_pts": 0,
            "start_time": "0.000000",
            "duration_ts": 6394400,
            "duration": "6394.400000",
            "disposition": {
                "default": 0,
                "dub": 0,
                "original": 0,
                "comment": 0,
                "lyrics": 0,
                "karaoke": 0,
                "forced": 0,
                "hearing_impaired": 0,
                "visual_impaired": 0,
                "clean_effects": 0,
                "attached_pic": 0,
                "timed_thumbnails": 0,
                "non_diegetic": 0,
                "captions": 0,
                "descriptions": 0,
                "metadata": 0,
                "dependent": 0,
                "still_image": 0,
                "multilayer": 0
            },
            "tags": {
                "language": "chi",
                "title": "Chinese (Mandarin Traditional)",
                "BPS": "12888",
                "DURATION": "01:37:21.669000000",
                "NUMBER_OF_FRAMES": "910",
                "NUMBER_OF_BYTES": "9411286",
                "_STATISTICS_WRITING_APP": "mkvpropedit v88.0 ('All I Know') 64-bit",
                "_STATISTICS_WRITING_DATE_UTC": "2025-06-25 21:55:43",
                "_STATISTICS_TAGS": "BPS DURATION NUMBER_OF_FRAMES NUMBER_OF_BYTES"
            }
        },
        {
            "index": 8,
            "codec_name": "hdmv_pgs_subtitle",
            "codec_long_name": "HDMV Presentation Graphic Stream subtitles",
            "codec_type": "subtitle",
            "codec_tag_string": "[0][0][0][0]",
            "codec_tag": "0x0000",
            "r_frame_rate": "0/0",
            "avg_frame_rate": "0/0",
            "time_base": "1/1000",
            "start_pts": 0,
            "start_time": "0.000000",
            "duration_ts": 6394400,
            "duration": "6394.400000",
            "disposition": {
                "default": 0,
                "dub": 0,
                "original": 0,
                "comment": 0,
                "lyrics": 0,
                "karaoke": 0,
                "forced": 0,
                "hearing_impaired": 0,
                "visual_impaired": 0,
                "clean_effects": 0,
                "attached_pic": 0,
                "timed_thumbnails": 0,
                "non_diegetic": 0,
                "captions": 0,
                "descriptions": 0,
                "metadata": 0,
                "dependent": 0,
                "still_image": 0,
                "multilayer": 0
            },
            "tags": {
                "language": "cze",
                "title": "Czech",
                "BPS": "10640",
                "DURATION": "01:42:35.316000000",
                "NUMBER_OF_FRAMES": "870",
                "NUMBER_OF_BYTES": "8186865",
                "_STATISTICS_WRITING_APP": "mkvpropedit v88.0 ('All I Know') 64-bit",
                "_STATISTICS_WRITING_DATE_UTC": "2025-06-25 21:55:43",
                "_STATISTICS_TAGS": "BPS DURATION NUMBER_OF_FRAMES NUMBER_OF_BYTES"
            }
        },
        {
            "index": 9,
            "codec_name": "hdmv_pgs_subtitle",
            "codec_long_name": "HDMV Presentation Graphic Stream subtitles",
            "codec_type": "subtitle",
            "codec_tag_string": "[0][0][0][0]",
            "codec_tag": "0x0000",
            "r_frame_rate": "0/0",
            "avg_frame_rate": "0/0",
            "time_base": "1/1000",
            "start_pts": 0,
            "start_time": "0.000000",
            "duration_ts": 6394400,
            "duration": "6394.400000",
            "disposition": {
                "default": 0,
                "dub": 0,
                "original": 0,
                "comment": 0,
                "lyrics": 0,
                "karaoke": 0,
                "forced": 0,
                "hearing_impaired": 0,
                "visual_impaired": 0,
                "clean_effects": 0,
                "attached_pic": 0,
                "timed_thumbnails": 0,
                "non_diegetic": 0,
                "captions": 0,
                "descriptions": 0,
                "metadata": 0,
                "dependent": 0,
                "still_image": 0,
                "multilayer": 0
            },
            "tags": {
                "language": "dan",
                "title": "Danish",
                "BPS": "11444",
                "DURATION": "01:45:45.005000000",
                "NUMBER_OF_FRAMES": "900",
                "NUMBER_OF_BYTES": "9076549",
                "_STATISTICS_WRITING_APP": "mkvpropedit v88.0 ('All I Know') 64-bit",
                "_STATISTICS_WRITING_DATE_UTC": "2025-06-25 21:55:43",
                "_STATISTICS_TAGS": "BPS DURATION NUMBER_OF_FRAMES NUMBER_OF_BYTES"
            }
        },
        {
            "index": 10,
            "codec_name": "hdmv_pgs_subtitle",
            "codec_long_name": "HDMV Presentation Graphic Stream subtitles",
            "codec_type": "subtitle",
            "codec_tag_string": "[0][0][0][0]",
            "codec_tag": "0x0000",
            "r_frame_rate": "0/0",
            "avg_frame_rate": "0/0",
            "time_base": "1/1000",
            "start_pts": 0,
            "start_time": "0.000000",
            "duration_ts": 6394400,
            "duration": "6394.400000",
            "disposition": {
                "default": 0,
                "dub": 0,
                "original": 0,
                "comment": 0,
                "lyrics": 0,
                "karaoke": 0,
                "forced": 0,
                "hearing_impaired": 0,
                "visual_impaired": 0,
                "clean_effects": 0,
                "attached_pic": 0,
                "timed_thumbnails": 0,
                "non_diegetic": 0,
                "captions": 0,
                "descriptions": 0,
                "metadata": 0,
                "dependent": 0,
                "still_image": 0,
                "multilayer": 0
            },
            "tags": {
                "language": "dut",
                "title": "Dutch",
                "BPS": "11320",
                "DURATION": "01:42:33.564000000",
                "NUMBER_OF_FRAMES": "844",
                "NUMBER_OF_BYTES": "8707884",
                "_STATISTICS_WRITING_APP": "mkvpropedit v88.0 ('All I Know') 64-bit",
                "_STATISTICS_WRITING_DATE_UTC": "2025-06-25 21:55:43",
                "_STATISTICS_TAGS": "BPS DURATION NUMBER_OF_FRAMES NUMBER_OF_BYTES"
            }
        },
        {
            "index": 11,
            "codec_name": "hdmv_pgs_subtitle",
            "codec_long_name": "HDMV Presentation Graphic Stream subtitles",
            "codec_type": "subtitle",
            "codec_tag_string": "[0][0][0][0]",
            "codec_tag": "0x0000",
            "r_frame_rate": "0/0",
            "avg_frame_rate": "0/0",
            "time_base": "1/1000",
            "start_pts": 0,
            "start_time": "0.000000",
            "duration_ts": 6394400,
            "duration": "6394.400000",
            "disposition": {
                "default": 0,
                "dub": 0,
                "original": 0,
                "comment": 0,
                "lyrics": 0,
                "karaoke": 0,
                "forced": 0,
                "hearing_impaired": 0,
                "visual_impaired": 0,
                "clean_effects": 0,
                "attached_pic": 0,
                "timed_thumbnails": 0,
                "non_diegetic": 0,
                "captions": 0,
                "descriptions": 0,
                "metadata": 0,
                "dependent": 0,
                "still_image": 0,
                "multilayer": 0
            },
            "tags": {
                "language": "fin",
                "title": "Finnish",
                "BPS": "12131",
                "DURATION": "01:42:33.564000000",
                "NUMBER_OF_FRAMES": "856",
                "NUMBER_OF_BYTES": "9331706",
                "_STATISTICS_WRITING_APP": "mkvpropedit v88.0 ('All I Know') 64-bit",
                "_STATISTICS_WRITING_DATE_UTC": "2025-06-25 21:55:43",
                "_STATISTICS_TAGS": "BPS DURATION NUMBER_OF_FRAMES NUMBER_OF_BYTES"
            }
        },
        {
            "index": 12,
            "codec_name": "hdmv_pgs_subtitle",
            "codec_long_name": "HDMV Presentation Graphic Stream subtitles",
            "codec_type": "subtitle",
            "codec_tag_string": "[0][0][0][0]",
            "codec_tag": "0x0000",
            "r_frame_rate": "0/0",
            "avg_frame_rate": "0/0",
            "time_base": "1/1000",
            "start_pts": 0,
            "start_time": "0.000000",
            "duration_ts": 6394400,
            "duration": "6394.400000",
            "disposition": {
                "default": 0,
                "dub": 0,
                "original": 0,
                "comment": 0,
                "lyrics": 0,
                "karaoke": 0,
                "forced": 0,
                "hearing_impaired": 0,
                "visual_impaired": 0,
                "clean_effects": 0,
                "attached_pic": 0,
                "timed_thumbnails": 0,
                "non_diegetic": 0,
                "captions": 0,
                "descriptions": 0,
                "metadata": 0,
                "dependent": 0,
                "still_image": 0,
                "multilayer": 0
            },
            "tags": {
                "language": "fre",
                "title": "French",
                "BPS": "11358",
                "DURATION": "01:42:33.648000000",
                "NUMBER_OF_FRAMES": "898",
                "NUMBER_OF_BYTES": "8736697",
                "_STATISTICS_WRITING_APP": "mkvpropedit v88.0 ('All I Know') 64-bit",
                "_STATISTICS_WRITING_DATE_UTC": "2025-06-25 21:55:43",
                "_STATISTICS_TAGS": "BPS DURATION NUMBER_OF_FRAMES NUMBER_OF_BYTES"
            }
        },
        {
            "index": 13,
            "codec_name": "hdmv_pgs_subtitle",
            "codec_long_name": "HDMV Presentation Graphic Stream subtitles",
            "codec_type": "subtitle",
            "codec_tag_string": "[0][0][0][0]",
            "codec_tag": "0x0000",
            "r_frame_rate": "0/0",
            "avg_frame_rate": "0/0",
            "time_base": "1/1000",
            "start_pts": 0,
            "start_time": "0.000000",
            "duration_ts": 6394400,
            "duration": "6394.400000",
            "disposition": {
                "default": 0,
                "dub": 0,
                "original": 0,
                "comment": 0,
                "lyrics": 0,
                "karaoke": 0,
                "forced": 0,
                "hearing_impaired": 0,
                "visual_impaired": 0,
                "clean_effects": 0,
                "attached_pic": 0,
                "timed_thumbnails": 0,
                "non_diegetic": 0,
                "captions": 0,
                "descriptions": 0,
                "metadata": 0,
                "dependent": 0,
                "still_image": 0,
                "multilayer": 0
            },
            "tags": {
                "language": "ger",
                "title": "German",
                "BPS": "11642",
                "DURATION": "01:37:21.711000000",
                "NUMBER_OF_FRAMES": "882",
                "NUMBER_OF_BYTES": "8501296",
                "_STATISTICS_WRITING_APP": "mkvpropedit v88.0 ('All I Know') 64-bit",
                "_STATISTICS_WRITING_DATE_UTC": "2025-06-25 21:55:43",
                "_STATISTICS_TAGS": "BPS DURATION NUMBER_OF_FRAMES NUMBER_OF_BYTES"
            }
        },
        {
            "index": 14,
            "codec_name": "hdmv_pgs_subtitle",
            "codec_long_name": "HDMV Presentation Graphic Stream subtitles",
            "codec_type": "subtitle",
            "codec_tag_string": "[0][0][0][0]",
            "codec_tag": "0x0000",
            "r_frame_rate": "0/0",
            "avg_frame_rate": "0/0",
            "time_base": "1/1000",
            "start_pts": 0,
            "start_time": "0.000000",
            "duration_ts": 6394400,
            "duration": "6394.400000",
            "disposition": {
                "default": 0,
                "dub": 0,
                "original": 0,
                "comment": 0,
                "lyrics": 0,
                "karaoke": 0,
                "forced": 0,
                "hearing_impaired": 0,
                "visual_impaired": 0,
                "clean_effects": 0,
                "attached_pic": 0,
                "timed_thumbnails": 0,
                "non_diegetic": 0,
                "captions": 0,
                "descriptions": 0,
                "metadata": 0,
                "dependent": 0,
                "still_image": 0,
                "multilayer": 0
            },
            "tags": {
                "language": "ita",
                "title": "Italian",
                "BPS": "11150",
                "DURATION": "01:42:33.564000000",
                "NUMBER_OF_FRAMES": "892",
                "NUMBER_OF_BYTES": "8576677",
                "_STATISTICS_WRITING_APP": "mkvpropedit v88.0 ('All I Know') 64-bit",
                "_STATISTICS_WRITING_DATE_UTC": "2025-06-25 21:55:43",
                "_STATISTICS_TAGS": "BPS DURATION NUMBER_OF_FRAMES NUMBER_OF_BYTES"
            }
        },
        {
            "index": 15,
            "codec_name": "hdmv_pgs_subtitle",
            "codec_long_name": "HDMV Presentation Graphic Stream subtitles",
            "codec_type": "subtitle",
            "codec_tag_string": "[0][0][0][0]",
            "codec_tag": "0x0000",
            "r_frame_rate": "0/0",
            "avg_frame_rate": "0/0",
            "time_base": "1/1000",
            "start_pts": 0,
            "start_time": "0.000000",
            "duration_ts": 6394400,
            "duration": "6394.400000",
            "disposition": {
                "default": 0,
                "dub": 0,
                "original": 0,
                "comment": 0,
                "lyrics": 0,
                "karaoke": 0,
                "forced": 0,
                "hearing_impaired": 0,
                "visual_impaired": 0,
                "clean_effects": 0,
                "attached_pic": 0,
                "timed_thumbnails": 0,
                "non_diegetic": 0,
                "captions": 0,
                "descriptions": 0,
                "metadata": 0,
                "dependent": 0,
                "still_image": 0,
                "multilayer": 0
            },
            "tags": {
                "language": "jpn",
                "title": "Japanese",
                "BPS": "7119",
                "DURATION": "01:42:37.026000000",
                "NUMBER_OF_FRAMES": "844",
                "NUMBER_OF_BYTES": "5479613",
                "_STATISTICS_WRITING_APP": "mkvpropedit v88.0 ('All I Know') 64-bit",
                "_STATISTICS_WRITING_DATE_UTC": "2025-06-25 21:55:43",
                "_STATISTICS_TAGS": "BPS DURATION NUMBER_OF_FRAMES NUMBER_OF_BYTES"
            }
        },
        {
            "index": 16,
            "codec_name": "hdmv_pgs_subtitle",
            "codec_long_name": "HDMV Presentation Graphic Stream subtitles",
            "codec_type": "subtitle",
            "codec_tag_string": "[0][0][0][0]",
            "codec_tag": "0x0000",
            "r_frame_rate": "0/0",
            "avg_frame_rate": "0/0",
            "time_base": "1/1000",
            "start_pts": 0,
            "start_time": "0.000000",
            "duration_ts": 6394400,
            "duration": "6394.400000",
            "disposition": {
                "default": 0,
                "dub": 0,
                "original": 0,
                "comment": 0,
                "lyrics": 0,
                "karaoke": 0,
                "forced": 0,
                "hearing_impaired": 0,
                "visual_impaired": 0,
                "clean_effects": 0,
                "attached_pic": 0,
                "timed_thumbnails": 0,
                "non_diegetic": 0,
                "captions": 0,
                "descriptions": 0,
                "metadata": 0,
                "dependent": 0,
                "still_image": 0,
                "multilayer": 0
            },
            "tags": {
                "language": "nob",
                "title": "Norwegian",
                "BPS": "11259",
                "DURATION": "01:42:33.564000000",
                "NUMBER_OF_FRAMES": "868",
                "NUMBER_OF_BYTES": "8660577",
                "_STATISTICS_WRITING_APP": "mkvpropedit v88.0 ('All I Know') 64-bit",
                "_STATISTICS_WRITING_DATE_UTC": "2025-06-25 21:55:43",
                "_STATISTICS_TAGS": "BPS DURATION NUMBER_OF_FRAMES NUMBER_OF_BYTES"
            }
        },
        {
            "index": 17,
            "codec_name": "hdmv_pgs_subtitle",
            "codec_long_name": "HDMV Presentation Graphic Stream subtitles",
            "codec_type": "subtitle",
            "codec_tag_string": "[0][0][0][0]",
            "codec_tag": "0x0000",
            "r_frame_rate": "0/0",
            "avg_frame_rate": "0/0",
            "time_base": "1/1000",
            "start_pts": 0,
            "start_time": "0.000000",
            "duration_ts": 6394400,
            "duration": "6394.400000",
            "disposition": {
                "default": 0,
                "dub": 0,
                "original": 0,
                "comment": 0,
                "lyrics": 0,
                "karaoke": 0,
                "forced": 0,
                "hearing_impaired": 0,
                "visual_impaired": 0,
                "clean_effects": 0,
                "attached_pic": 0,
                "timed_thumbnails": 0,
                "non_diegetic": 0,
                "captions": 0,
                "descriptions": 0,
                "metadata": 0,
                "dependent": 0,
                "still_image": 0,
                "multilayer": 0
            },
            "tags": {
                "language": "pol",
                "title": "Polish",
                "BPS": "11273",
                "DURATION": "01:42:33.564000000",
                "NUMBER_OF_FRAMES": "882",
                "NUMBER_OF_BYTES": "8671506",
                "_STATISTICS_WRITING_APP": "mkvpropedit v88.0 ('All I Know') 64-bit",
                "_STATISTICS_WRITING_DATE_UTC": "2025-06-25 21:55:43",
                "_STATISTICS_TAGS": "BPS DURATION NUMBER_OF_FRAMES NUMBER_OF_BYTES"
            }
        },
        {
            "index": 18,
            "codec_name": "hdmv_pgs_subtitle",
            "codec_long_name": "HDMV Presentation Graphic Stream subtitles",
            "codec_type": "subtitle",
            "codec_tag_string": "[0][0][0][0]",
            "codec_tag": "0x0000",
            "r_frame_rate": "0/0",
            "avg_frame_rate": "0/0",
            "time_base": "1/1000",
            "start_pts": 0,
            "start_time": "0.000000",
            "duration_ts": 6394400,
            "duration": "6394.400000",
            "disposition": {
                "default": 0,
                "dub": 0,
                "original": 0,
                "comment": 0,
                "lyrics": 0,
                "karaoke": 0,
                "forced": 0,
                "hearing_impaired": 0,
                "visual_impaired": 0,
                "clean_effects": 0,
                "attached_pic": 0,
                "timed_thumbnails": 0,
                "non_diegetic": 0,
                "captions": 0,
                "descriptions": 0,
                "metadata": 0,
                "dependent": 0,
                "still_image": 0,
                "multilayer": 0
            },
            "tags": {
                "language": "spa",
                "title": "Spanish (Castilian)",
                "BPS": "11787",
                "DURATION": "01:42:33.648000000",
                "NUMBER_OF_FRAMES": "896",
                "NUMBER_OF_BYTES": "9066755",
                "_STATISTICS_WRITING_APP": "mkvpropedit v88.0 ('All I Know') 64-bit",
                "_STATISTICS_WRITING_DATE_UTC": "2025-06-25 21:55:43",
                "_STATISTICS_TAGS": "BPS DURATION NUMBER_OF_FRAMES NUMBER_OF_BYTES"
            }
        },
        {
            "index": 19,
            "codec_name": "hdmv_pgs_subtitle",
            "codec_long_name": "HDMV Presentation Graphic Stream subtitles",
            "codec_type": "subtitle",
            "codec_tag_string": "[0][0][0][0]",
            "codec_tag": "0x0000",
            "r_frame_rate": "0/0",
            "avg_frame_rate": "0/0",
            "time_base": "1/1000",
            "start_pts": 0,
            "start_time": "0.000000",
            "duration_ts": 6394400,
            "duration": "6394.400000",
            "disposition": {
                "default": 0,
                "dub": 0,
                "original": 0,
                "comment": 0,
                "lyrics": 0,
                "karaoke": 0,
                "forced": 0,
                "hearing_impaired": 0,
                "visual_impaired": 0,
                "clean_effects": 0,
                "attached_pic": 0,
                "timed_thumbnails": 0,
                "non_diegetic": 0,
                "captions": 0,
                "descriptions": 0,
                "metadata": 0,
                "dependent": 0,
                "still_image": 0,
                "multilayer": 0
            },
            "tags": {
                "language": "spa",
                "title": "Spanish (Latin American)",
                "BPS": "11496",
                "DURATION": "01:37:21.669000000",
                "NUMBER_OF_FRAMES": "968",
                "NUMBER_OF_BYTES": "8394897",
                "_STATISTICS_WRITING_APP": "mkvpropedit v88.0 ('All I Know') 64-bit",
                "_STATISTICS_WRITING_DATE_UTC": "2025-06-25 21:55:43",
                "_STATISTICS_TAGS": "BPS DURATION NUMBER_OF_FRAMES NUMBER_OF_BYTES"
            }
        },
        {
            "index": 20,
            "codec_name": "hdmv_pgs_subtitle",
            "codec_long_name": "HDMV Presentation Graphic Stream subtitles",
            "codec_type": "subtitle",
            "codec_tag_string": "[0][0][0][0]",
            "codec_tag": "0x0000",
            "r_frame_rate": "0/0",
            "avg_frame_rate": "0/0",
            "time_base": "1/1000",
            "start_pts": 0,
            "start_time": "0.000000",
            "duration_ts": 6394400,
            "duration": "6394.400000",
            "disposition": {
                "default": 0,
                "dub": 0,
                "original": 0,
                "comment": 0,
                "lyrics": 0,
                "karaoke": 0,
                "forced": 0,
                "hearing_impaired": 0,
                "visual_impaired": 0,
                "clean_effects": 0,
                "attached_pic": 0,
                "timed_thumbnails": 0,
                "non_diegetic": 0,
                "captions": 0,
                "descriptions": 0,
                "metadata": 0,
                "dependent": 0,
                "still_image": 0,
                "multilayer": 0
            },
            "tags": {
                "language": "swe",
                "title": "Swedish",
                "BPS": "11301",
                "DURATION": "01:42:33.564000000",
                "NUMBER_OF_FRAMES": "868",
                "NUMBER_OF_BYTES": "8693076",
                "_STATISTICS_WRITING_APP": "mkvpropedit v88.0 ('All I Know') 64-bit",
                "_STATISTICS_WRITING_DATE_UTC": "2025-06-25 21:55:43",
                "_STATISTICS_TAGS": "BPS DURATION NUMBER_OF_FRAMES NUMBER_OF_BYTES"
            }
        }
    ],
    "format": {
        "filename": "/Users/karbowiak/Private/Heya/fulldata/Movies/Predator (1987)/Predator (1987) {imdb-tt0093773} [Bluray-1080p][HDR10][EAC3 5.1][EN][10bit][x265][EN+RO+ZH+CS+DA+NL+FI+FR+DE+IT+JA+NB+PL+ES+SV]-SPHD.mkv",
        "nb_streams": 21,
        "nb_programs": 0,
        "nb_stream_groups": 0,
        "format_name": "matroska,webm",
        "format_long_name": "Matroska / WebM",
        "start_time": "0.000000",
        "duration": "6394.400000",
        "size": "2003397901",
        "bit_rate": "2506440",
        "probe_score": 100,
        "tags": {
            "title": "Predator.1987",
            "ENCODER": "Lavf61.1.100"
        }
    }
}
